<svg width="36" height="36" viewBox="0 0 36 36" fill="none" xmlns="http://www.w3.org/2000/svg">
<g clip-path="url(#clip0_147_47)">
<path d="M30.7909 30.3749H5.03777C4.29537 30.3749 3.58337 30.0786 3.05841 29.5512C2.53345 29.0237 2.23853 28.3084 2.23853 27.5624V8.43742C2.23853 7.6915 2.53345 6.97613 3.05841 6.44869C3.58337 5.92124 4.29537 5.62492 5.03777 5.62492H10.3487C10.9014 5.62494 11.4417 5.78935 11.9015 6.09742L13.8498 7.40242C14.3097 7.7105 14.85 7.87491 15.4027 7.87492H30.7909C31.5333 7.87492 32.2453 8.17124 32.7702 8.69869C33.2952 9.22613 33.5901 9.9415 33.5901 10.6874V27.5624C33.5901 28.3084 33.2952 29.0237 32.7702 29.5512C32.2453 30.0786 31.5333 30.3749 30.7909 30.3749Z" stroke="#EBD16F" stroke-width="3" stroke-linecap="round" stroke-linejoin="round"/>
<path d="M2.23853 13.5003H33.5901" stroke="#EBD16F" stroke-width="3" stroke-linecap="round" stroke-linejoin="round"/>
</g>
<defs>
<clipPath id="clip0_147_47">
<rect width="35.8304" height="36" fill="white"/>
</clipPath>
</defs>
</svg>
